<?xml version="1.0" encoding="UTF-8"?>
<svg width="32px" height="32px" fill="#a08cff" viewBox="0 0 43 40" xmlns="http://www.w3.org/2000/svg">
    <path d="m37.722 4.9923c-1.5038-1.514-3.293-2.7145-5.264-3.532-1.9711-0.81747-4.0848-1.2356-6.2186-1.2303h-10.331c-3.1315 0-6.1347 1.244-8.349 3.4583-2.2143 2.2143-3.4583 5.2175-3.4583 8.349 0 3.1315 1.244 6.1347 3.4583 8.349 2.2143 2.2143 5.2175 3.4583 8.349 3.4583h10.331c1.9572 0 3.8342-0.7775 5.2181-2.1614 1.3839-1.384 2.1614-3.261 2.1614-5.2182 0-1.9571-0.7775-3.8342-2.1614-5.2181-1.3839-1.3839-3.2609-2.1614-5.2181-2.1614h-10.331c-0.7829 0-1.5337 0.31099-2.0872 0.86457-0.5536 0.55354-0.8646 1.3043-0.8646 2.0872s0.311 1.5337 0.8646 2.0873c0.5535 0.5535 1.3043 0.8645 2.0872 0.8645h10.331c0.3914 0 0.7668 0.1555 1.0436 0.4323s0.4323 0.6522 0.4323 1.0436c0 0.3915-0.1555 0.7669-0.4323 1.0437-0.2768 0.2767-0.6522 0.4323-1.0436 0.4323h-10.331c-1.5657 0-3.0674-0.622-4.1745-1.7292-1.1072-1.1071-1.7291-2.6087-1.7291-4.1745 0-1.5657 0.6219-3.0674 1.7291-4.1745 1.1071-1.1071 2.6088-1.7291 4.1745-1.7291h10.331c1.3567 0 2.7002 0.26723 3.9536 0.78643 1.2535 0.5192 2.3924 1.2802 3.3518 2.2396 0.9593 0.95934 1.7203 2.0982 2.2395 3.3517s0.7864 2.5969 0.7864 3.9536c0 1.3568-0.2672 2.7002-0.7864 3.9537-0.5192 1.2534-1.2802 2.3924-2.2395 3.3517-0.9594 0.9594-2.0983 1.7204-3.3518 2.2396-1.2534 0.5192-2.5969 0.7864-3.9536 0.7864h-1.9679c-7.987-0.0031-15.808 2.2774-22.542 6.5727l-1.2299 0.7773 3.1683 4.9886 1.2594-0.7576c5.7886-3.6885 12.51-5.6479 19.374-5.6478h1.9679c3.2133-9e-4 6.3541-0.9553 9.0246-2.7424 2.6705-1.787 4.7507-4.3264 5.9771-7.2964 1.2263-2.9701 1.5438-6.2373 0.9121-9.3879s-2.1842-6.0429-4.4607-8.3106z"/>
</svg>
